HIERARCHY
ROOT hip
{
	OFFSET 0.000000 0.000000 0.000000 
	CHANNELS 6 Xposition Yposition Zposition Xrotation Zrotation Yrotation
	JOINT abdomen
	{
		OFFSET 0.000000 3.402643 0.000000 
		CHANNELS 3 Xrotation Zrotation Yrotation
		JOINT chest
		{
			OFFSET 0.000000 8.438565 -0.680529 
			CHANNELS 3 Xrotation Zrotation Yrotation
			JOINT neck
			{
				OFFSET 0.000000 10.207942 -0.272212 
				CHANNELS 3 Xrotation Zrotation Yrotation
				JOINT head
				{
					OFFSET 0.000000 3.130431 0.000000 
					CHANNELS 3 Xrotation Zrotation Yrotation
					End Site
					{
						OFFSET 0.000000 3.130435 0.000000 
					}
				}
			}
			JOINT lCollar
			{
				OFFSET 3.470700 6.669187 -0.816635 
				CHANNELS 3 Yrotation Zrotation Xrotation
				JOINT lShldr
				{
					OFFSET 3.198488 0.000000 0.000000 
					CHANNELS 3 Zrotation Yrotation Xrotation
					JOINT lForeArm
					{
						OFFSET 10.139888 0.000000 0.000000 
						CHANNELS 3 Yrotation Zrotation Xrotation
						JOINT lHand
						{
							OFFSET 8.370511 0.000000 0.000000 
							CHANNELS 3 Zrotation Yrotation Xrotation
							End Site
							{
								OFFSET 4.083176 0.000000 0.000000 
							}
						}
					}
				}
			}
			JOINT rCollar
			{
				OFFSET -3.470700 6.669187 -0.816635 
				CHANNELS 3 Yrotation Zrotation Xrotation
				JOINT rShldr
				{
					OFFSET -3.198488 0.000000 0.000000 
					CHANNELS 3 Zrotation Yrotation Xrotation
					JOINT rForeArm
					{
						OFFSET -10.139888 0.000000 0.000000 
						CHANNELS 3 Yrotation Zrotation Xrotation
						JOINT rHand
						{
							OFFSET -8.370511 0.000000 0.000000 
							CHANNELS 3 Zrotation Yrotation Xrotation
							End Site
							{
								OFFSET -4.083176 0.000000 0.000000 
							}
						}
					}
				}
			}
		}
	}
	JOINT lThigh
	{
		OFFSET 5.308129 -1.633274 1.361059 
		CHANNELS 3 Xrotation Zrotation Yrotation
		JOINT lShin
		{
			OFFSET -2.041588 -20.007561 0.000000 
			CHANNELS 3 Xrotation Zrotation Yrotation
			JOINT lFoot
			{
				OFFSET 0.000000 -19.190928 -1.224953 
				CHANNELS 3 Xrotation Yrotation Zrotation
				End Site
				{
					OFFSET 0.000000 -2.449906 4.627600 
				}
			}
		}
	}
	JOINT rThigh
	{
		OFFSET -5.308129 -1.633274 1.361059 
		CHANNELS 3 Xrotation Zrotation Yrotation
		JOINT rShin
		{
			OFFSET 2.041588 -20.007561 0.000000 
			CHANNELS 3 Xrotation Zrotation Yrotation
			JOINT rFoot
			{
				OFFSET 0.000000 -19.190928 -1.224953 
				CHANNELS 3 Xrotation Yrotation Zrotation
				End Site
				{
					OFFSET 0.000000 -2.449906 4.627600 
				}
			}
		}
	}
}
MOTION
Frames: 10
Frame Time: 0.066667
0.000000 42.014908 0.240040 0.000000 0.000000 0.000000 0.000000 0.000000 0.000000 0.000000 0.000000 0.000000 0.000000 0.000000 0.000000 0.000000 0.000000 0.000000 2.021920 -5.690310 -0.063351 -70.100700 9.978770 15.991600 -22.515600 -9.303740 0.147736 5.969490 -0.173112 0.175734 -2.021920 5.690310 -0.063351 70.100700 -9.978770 15.991600 22.515600 9.303740 0.147736 -5.969490 0.173112 0.175734 -7.548709 4.016634 0.126881 15.890360 -3.336124 -0.813312 -8.628910 1.044381 -0.888102 -7.530616 -4.334307 0.100752 15.830232 3.319340 0.622262 -8.660608 -1.559428 0.936809 
0.039814 41.899296 0.241190 0.000000 0.000000 -0.501519 0.076089 -0.047977 0.086760 0.080437 -0.040918 -0.185089 1.543135 0.000000 0.000000 -1.337809 0.013589 -0.084929 1.698423 -6.145940 -0.170759 -69.713493 10.010641 15.406242 -21.605762 -9.211841 -0.046929 8.410601 -5.364861 -0.319513 -0.776169 5.691003 -0.063361 70.377159 -7.381076 15.714259 39.191650 5.745263 0.147736 9.688475 1.353782 -1.636086 -8.434450 4.282907 0.126939 17.845293 -3.418611 -3.342519 -9.443543 1.141979 -0.628322 -8.724339 -4.317830 0.098728 18.069643 3.376410 3.702412 -9.394203 -1.296290 1.260884 
0.089033 41.756374 0.242611 0.000000 0.000000 -1.031836 0.160111 -0.108203 0.144972 0.170631 -0.089783 -0.366195 3.452946 0.000000 0.000000 -2.996245 0.028841 -0.180255 1.353956 -6.713018 -0.295988 -69.194130 10.026111 14.734116 -20.453989 -9.016167 -0.262993 11.011240 -11.341043 -0.829138 0.770202 5.764425 -0.063373 70.640648 -4.160726 15.355293 59.582611 1.390090 0.147736 28.328529 2.797449 -3.793892 -9.450768 4.590892 0.106941 20.059561 -3.476677 -6.451475 -10.327104 1.153454 -0.276719 -10.037220 -4.262142 0.071489 20.498079 3.364482 7.514089 -10.060794 -1.072294 1.595087 
0.152735 41.571396 0.244451 0.000000 0.000000 -0.846192 0.171204 -0.195037 -0.256536 0.197459 -0.136292 -0.136715 5.945064 0.000000 0.000000 -5.186948 0.033540 -0.209627 1.447323 -7.483898 -0.384617 -68.126434 9.813471 14.365194 -18.701052 -7.965080 -0.303546 10.320845 -14.776716 -0.490915 2.832814 6.564942 -0.063391 70.220604 0.093946 14.734175 83.786072 -3.818466 0.147736 45.479752 4.510845 -5.788650 -10.643839 4.978059 0.074565 22.449301 -3.467690 -10.473202 -11.090033 0.289025 0.194043 -11.529180 -4.114105 0.043295 23.422285 3.258556 12.424737 -10.827029 -1.627814 1.965040 
0.236278 41.328808 0.246863 0.000000 0.000000 0.277499 0.041446 -0.346489 -1.135812 0.126242 -0.196218 0.491244 9.234416 0.000000 0.000000 -8.113848 0.019523 -0.122022 2.016382 -8.166621 -0.401768 -66.648834 9.373969 14.484484 -16.131882 -5.597216 -0.018365 3.986723 -13.372799 1.258861 5.612359 8.044829 -0.063414 69.215096 5.807666 13.831058 111.841072 -9.864959 0.147736 58.326874 6.496727 -7.313967 -12.277314 5.509349 -0.001191 25.453333 -3.451756 -15.734137 -11.828375 -1.801828 0.926675 -13.106681 -3.834708 0.010947 26.704674 3.028259 18.804417 -11.575487 -3.229861 2.358238 
0.322353 41.078865 0.249349 0.000000 0.000000 0.000000 -0.204512 -0.658627 -0.488950 0.107429 -0.379944 -0.468471 12.592593 0.000000 0.000000 -11.111111 0.000000 0.000000 1.132182 -6.626923 -0.391431 -67.699158 9.747208 14.364408 -13.883741 -3.372201 0.461128 -3.827750 -9.628258 3.204261 8.450939 6.724223 -0.063427 71.304001 11.827765 13.572943 135.515594 -14.696260 0.147736 67.477890 8.173111 -8.495905 -13.575980 5.950140 -0.092779 28.163332 -3.325263 -21.057272 -12.544304 -2.530447 1.782613 -14.755357 -3.507474 -0.055722 29.778540 2.653540 25.256170 -11.854495 -3.430288 2.808297 
0.391381 40.878422 0.251342 0.000000 0.000000 -3.708260 -0.510066 -1.180497 3.269981 0.275930 -0.762068 -4.633492 15.210903 0.000000 0.000000 -13.439645 -0.010435 0.065217 -2.728906 -1.332951 -0.402916 -73.533775 11.750221 13.354638 -13.060403 -2.744397 1.176265 -8.517013 -6.617537 4.058332 10.623753 -0.111750 -0.063418 79.310555 16.811852 14.721362 147.208282 -16.482080 0.147735 74.162857 9.002047 -9.507215 -13.972370 6.134489 -0.173463 30.142418 -3.175998 -25.162302 -13.696976 0.342596 2.697333 -16.380077 -3.290063 -0.111433 32.075344 2.295804 30.232996 -11.151580 -0.131768 3.219561 
0.437374 40.744869 0.252670 0.000000 0.000000 -9.076838 -0.783346 -1.715001 8.033052 0.519381 -1.179417 -10.173292 16.902855 0.000000 0.000000 -14.937064 -0.013018 0.081365 -7.502430 4.995176 -0.427956 -80.883812 14.271429 12.026385 -13.279365 -3.226116 3.141023 -10.222770 -4.918960 4.029654 11.996926 -8.685838 -0.063397 89.049713 20.236025 16.429125 150.111420 -16.321115 0.147736 78.676651 9.206444 -10.274950 -13.732016 6.056817 -0.203365 31.440699 -3.056568 -27.818184 -15.151702 5.158724 3.605977 -17.671932 -3.125036 -0.154059 33.334335 2.021921 33.398579 -9.794173 4.892537 3.543650 
0.459448 40.680775 0.253308 0.000000 0.000000 -13.874084 -0.946842 -2.058257 11.367829 0.697151 -1.455288 -14.893601 17.690443 0.000000 0.000000 -15.630610 -0.012227 0.076416 -10.815484 9.332779 -0.448062 -86.019188 16.032480 11.084456 -13.894051 -3.995624 7.250385 -10.141155 -4.428786 3.621523 12.621324 -14.667305 -0.063381 95.769180 21.927347 17.686445 149.292892 -15.747929 0.147744 81.172073 9.142193 -10.705463 -13.293406 5.838333 -0.190106 32.102772 -3.002146 -29.044096 -16.443802 9.641053 4.353858 -18.519234 -3.030650 -0.182216 33.902229 1.899208 34.872696 -8.542339 9.466275 3.627312 
0.464512 40.666069 0.253454 0.000000 0.000000 -17.883171 -1.021021 -2.235370 13.322445 0.807047 -1.604288 -18.661230 17.843428 0.000000 0.000000 -15.761244 -0.009739 0.060870 -12.734796 11.802892 -0.461855 -89.020905 17.061476 10.523019 -14.681281 -4.836326 12.887268 -8.993822 -4.766160 3.028580 12.725297 -18.156483 -0.063370 99.630508 22.369762 18.471334 146.622391 -15.112501 0.147757 82.252151 8.942979 -10.882832 -12.714261 5.544820 -0.148182 32.186352 -2.986802 -29.277328 -17.443403 13.558492 4.862410 -18.980970 -2.985097 -0.198651 33.886356 1.882450 35.157616 -7.482285 13.353349 3.562209 
